<?xml version="1.0" encoding="UTF-8"?>
<svg width="194px" height="39px" viewBox="0 0 194 39" version="1.1" xmlns="http://www.w3.org/2000/svg" xmlns:xlink="http://www.w3.org/1999/xlink">
    <!-- Generator: Sketch 42 (36781) - http://www.bohemiancoding.com/sketch -->
    <title>calophasis-logo</title>
    <desc>Created with Sketch.</desc>
    <defs></defs>
    <g id="Mockup" stroke="none" stroke-width="1" fill="none" fill-rule="evenodd">
        <g id="[SR.P4]提醒卡片---詳細" transform="translate(-73.000000, -718.000000)">
            <g id="Group-20" transform="translate(-2.000000, 671.000000)">
                <rect id="Rectangle-15" fill="#F9F9F9" transform="translate(640.000000, 141.500000) scale(1, -1) translate(-640.000000, -141.500000) " x="0" y="0" width="1280" height="283"></rect>
                <g id="Group-6" transform="translate(75.000000, 47.000000)">
                    <g id="Group-3">
                        <path d="M10.9697081,33.050804 C11.2399014,34.2503761 11.878483,37.4215255 11.878483,37.4215255 C11.9248675,37.6130708 11.8744748,37.834245 11.7532932,38.0001567 C11.6321116,38.1660683 11.4173553,38.2666664 11.2599141,38.2666667 C8.4955199,38.2666667 1.02145222,38.2666667 1.02145222,38.2666667 C0.828163294,38.2666664 0.424815342,38.1229429 0.351059819,37.7200083 C0.277304295,37.3170738 0.533306013,37.036675 0.744323364,36.9587699 C0.744323364,36.9587699 7.53217487,33.753313 10.0426542,32.5677783 C10.1671374,32.5073812 10.4083468,32.4650899 10.6287069,32.5881683 C10.8490669,32.7112467 10.9297036,32.8731964 10.9697081,33.050804 Z" id="Triangle" fill="#2E4867"></path>
                        <path d="M55.1505955,12.7027721 C49.3108014,19.6801092 35.7191001,35.9193598 35.7191001,35.9193598 C35.5937163,36.0431219 35.4366871,36.1747086 35.167294,36.1747086 C34.8979009,36.1747086 34.7169733,36.0020819 34.6348865,35.8956899 C32.1829426,32.3648947 27.2790546,25.3033044 27.2790546,25.3033044 C27.1860806,25.1354803 27.1226673,24.9233567 27.1860806,24.7103989 C27.2494939,24.4974412 27.4051634,24.3672308 27.5683934,24.2915216 C27.5683934,24.2915216 46.2889589,15.4510268 54.3684938,11.6355926 C54.5230096,11.560612 54.9156857,11.4597636 55.2041975,11.8307088 C55.4927093,12.2016541 55.2648913,12.5593363 55.1505955,12.7027721 Z" id="Triangle" fill="#E1193F"></path>
                        <path d="M7.78955771,0.735896622 C15.3752659,11.7005906 29.6095162,32.2753602 33.0108377,37.1917698 C33.0861518,37.3061468 33.2044335,37.6036371 33.0555781,37.8970149 C32.9067227,38.1903928 32.595698,38.2666672 32.4654517,38.2666667 C29.0694608,38.2666667 19.7857967,38.2666667 14.6475177,38.2666667 C14.5369254,38.2666672 14.3642386,38.2516943 14.206715,38.115061 C14.0491913,37.9784277 14.0013534,37.8361633 13.9762632,37.7146507 C13.2216469,34.0045785 8.84954555,12.5091383 6.56247475,1.2647525 C6.54162064,1.10749717 6.53486315,0.662813314 6.95704142,0.485890708 C7.37921968,0.308968103 7.66402316,0.577396647 7.78955771,0.735896622 Z" id="Triangle" fill="#2E8FD6"></path>
                    </g>
                    <path d="M73.5626418,34.9058333 L72.8538918,34.2173333 C71.4161418,35.6348333 70.0188918,36.4245833 67.9736418,36.4245833 C64.5918918,36.4245833 61.9796418,33.6300833 61.9796418,30.0458333 L61.9796418,30.0053333 C61.9796418,26.4413333 64.5513918,23.6670833 67.9533918,23.6670833 C70.0796418,23.6670833 71.4971418,24.5580833 72.7323918,25.7528333 L73.4816418,24.9833333 C72.0236418,23.6468333 70.5048918,22.7153333 67.9736418,22.7153333 C63.8831418,22.7153333 60.8861418,26.0363333 60.8861418,30.0458333 L60.8861418,30.0863333 C60.8861418,34.1565833 63.8831418,37.3763333 67.9331418,37.3763333 C70.4441418,37.3763333 72.0641418,36.3840833 73.5626418,34.9058333 L73.5626418,34.9058333 Z M89.4588918,37.1333333 L82.8573918,22.8570833 L81.8448918,22.8570833 L75.2433918,37.1333333 L76.3368918,37.1333333 L78.1391418,33.1643333 L86.5023918,33.1643333 L88.3046418,37.1333333 L89.4588918,37.1333333 Z M86.0568918,32.2125833 L78.5846418,32.2125833 L82.3308918,24.0113333 L86.0568918,32.2125833 Z M101.831642,37.1333333 L101.831642,36.1613333 L93.5088918,36.1613333 L93.5088918,22.9583333 L92.4558918,22.9583333 L92.4558918,37.1333333 L101.831642,37.1333333 Z M117.808892,30.0458333 C117.829142,30.0255833 117.829142,30.0255833 117.808892,30.0053333 C117.808892,26.1375833 114.994142,22.7153333 110.701142,22.7153333 C106.408142,22.7153333 103.552892,26.1780833 103.552892,30.0458333 L103.552892,30.0863333 C103.552892,33.9540833 106.367642,37.3763333 110.660642,37.3763333 C114.953642,37.3763333 117.808892,33.9135833 117.808892,30.0458333 L117.808892,30.0458333 Z M116.715392,30.0863333 C116.715392,33.5895833 114.204392,36.4245833 110.701142,36.4245833 C107.197892,36.4245833 104.646392,33.5490833 104.646392,30.0458333 L104.646392,30.0053333 C104.646392,26.5020833 107.157392,23.6670833 110.660642,23.6670833 C114.163892,23.6670833 116.715392,26.5425833 116.715392,30.0458333 L116.715392,30.0863333 Z M131.801642,27.3323333 L131.801642,27.2918333 C131.801642,24.5580833 129.655142,22.9583333 126.536642,22.9583333 L121.393142,22.9583333 L121.393142,37.1333333 L122.446142,37.1333333 L122.446142,31.8480833 L126.273392,31.8480833 C129.229892,31.8480833 131.801642,30.3090833 131.801642,27.3323333 L131.801642,27.3323333 Z M130.748642,27.3930833 C130.748642,29.4990833 128.966642,30.8760833 126.334142,30.8760833 L122.446142,30.8760833 L122.446142,23.9303333 L126.455642,23.9303333 C129.007142,23.9303333 130.748642,25.1048333 130.748642,27.3525833 L130.748642,27.3930833 Z M146.098142,37.1333333 L146.098142,22.9583333 L145.045142,22.9583333 L145.045142,29.5193333 L135.973142,29.5193333 L135.973142,22.9583333 L134.920142,22.9583333 L134.920142,37.1333333 L135.973142,37.1333333 L135.973142,30.4913333 L145.045142,30.4913333 L145.045142,37.1333333 L146.098142,37.1333333 Z M163.310642,37.1333333 L156.709142,22.8570833 L155.696642,22.8570833 L149.095142,37.1333333 L150.188642,37.1333333 L151.990892,33.1643333 L160.354142,33.1643333 L162.156392,37.1333333 L163.310642,37.1333333 Z M159.908642,32.2125833 L152.436392,32.2125833 L156.182642,24.0113333 L159.908642,32.2125833 Z M175.501142,33.4680833 L175.501142,33.4275833 C175.501142,31.3620833 174.124142,30.1875833 170.843642,29.5193333 C167.482142,28.8308333 166.712642,27.9195833 166.712642,26.4210833 L166.712642,26.3805833 C166.712642,24.9023333 168.089642,23.7075833 170.175392,23.7075833 C171.734642,23.7075833 173.071142,24.1530833 174.407642,25.3073333 L175.075892,24.4770833 C173.638142,23.3228333 172.281392,22.7558333 170.215892,22.7558333 C167.583392,22.7558333 165.659642,24.3758333 165.659642,26.4818333 L165.659642,26.5223333 C165.659642,28.6688333 167.036642,29.8230833 170.438642,30.5115833 C173.658392,31.1595833 174.448142,32.0303333 174.448142,33.5288333 L174.448142,33.5693333 C174.448142,35.1893333 172.990142,36.3840833 170.863892,36.3840833 C168.778142,36.3840833 167.340392,35.7158333 165.781142,34.2780833 L165.092642,35.0678333 C166.793642,36.5865833 168.535142,37.3358333 170.803142,37.3358333 C173.536892,37.3358333 175.501142,35.7563333 175.501142,33.4680833 L175.501142,33.4680833 Z M179.996642,24.1125833 L179.996642,22.7558333 L178.761392,22.7558333 L178.761392,24.1125833 L179.996642,24.1125833 Z M179.875142,37.1333333 L179.875142,26.8058333 L178.882892,26.8058333 L178.882892,37.1333333 L179.875142,37.1333333 Z M193.503392,33.4680833 L193.503392,33.4275833 C193.503392,31.3620833 192.126392,30.1875833 188.845892,29.5193333 C185.484392,28.8308333 184.714892,27.9195833 184.714892,26.4210833 L184.714892,26.3805833 C184.714892,24.9023333 186.091892,23.7075833 188.177642,23.7075833 C189.736892,23.7075833 191.073392,24.1530833 192.409892,25.3073333 L193.078142,24.4770833 C191.640392,23.3228333 190.283642,22.7558333 188.218142,22.7558333 C185.585642,22.7558333 183.661892,24.3758333 183.661892,26.4818333 L183.661892,26.5223333 C183.661892,28.6688333 185.038892,29.8230833 188.440892,30.5115833 C191.660642,31.1595833 192.450392,32.0303333 192.450392,33.5288333 L192.450392,33.5693333 C192.450392,35.1893333 190.992392,36.3840833 188.866142,36.3840833 C186.780392,36.3840833 185.342642,35.7158333 183.783392,34.2780833 L183.094892,35.0678333 C184.795892,36.5865833 186.537392,37.3358333 188.805392,37.3358333 C191.539142,37.3358333 193.503392,35.7563333 193.503392,33.4680833 L193.503392,33.4680833 Z" id="CALOPHASiS" fill="#2E4867"></path>
                </g>
            </g>
        </g>
    </g>
</svg>